<svg width="16" height="16" viewBox="0 0 16 16" xmlns="http://www.w3.org/2000/svg"><path fill="#000000" d="M5 14C4.448 14 4 13.552 4 13V3C4 2.448 4.448 2 5 2H8V4.5C8 5.328 8.672 6 9.5 6H12V6.025C12.344 6.056 12.677 6.121 13 6.213V5.414C13 5.016 12.842 4.635 12.561 4.353L9.647 1.439C9.366 1.158 8.984 1 8.586 1H5C3.895 1 3 1.895 3 3V13C3 14.105 3.895 15 5 15H7.261C7.008 14.693 6.791 14.357 6.607 14H5ZM9 2.207L11.793 5H9.5C9.224 5 9 4.776 9 4.5V2.207Z"/><circle cx="11.5" cy="11.5" r="4.5" fill="#c80b0f"/><rect x="11" y="9" width="1" height="3.2" rx="0.5" fill="#ffffff"/><circle cx="11.5" cy="13.3" r="0.6" fill="#ffffff"/></svg>